<mxfile host="app.diagrams.net" modified="2023-07-11T20:48:32.499Z" agent="Mozilla/5.0 (Macintosh; Intel Mac OS X 10_15_7) AppleWebKit/605.1.15 (KHTML, like Gecko) Version/16.5 Safari/605.1.15" etag="EXE2Oyl3CkBzW2CNFOLk" version="21.5.2" type="device">
  <diagram id="C5RBs43oDa-KdzZeNtuy" name="Page-1">
    <mxGraphModel dx="857" dy="513" grid="0" gridSize="10" guides="1" tooltips="1" connect="1" arrows="1" fold="1" page="1" pageScale="1" pageWidth="827" pageHeight="1169" math="0" shadow="0">
      <root>
        <mxCell id="WIyWlLk6GJQsqaUBKTNV-0" />
        <mxCell id="WIyWlLk6GJQsqaUBKTNV-1" parent="WIyWlLk6GJQsqaUBKTNV-0" />
        <mxCell id="EDt4DQMgxs3yA0LHIA2x-28" value="" style="whiteSpace=wrap;html=1;aspect=fixed;fillStyle=solid;shadow=0;opacity=90;rounded=1;dashed=1;fillColor=#1A1A1A;" parent="WIyWlLk6GJQsqaUBKTNV-1" vertex="1">
          <mxGeometry x="320" y="324" width="361" height="361" as="geometry" />
        </mxCell>
        <mxCell id="EDt4DQMgxs3yA0LHIA2x-5" value="" style="whiteSpace=wrap;html=1;aspect=fixed;fillStyle=solid;shadow=0;opacity=90;rounded=1;dashed=1;fillColor=#1A1A1A;" parent="WIyWlLk6GJQsqaUBKTNV-1" vertex="1">
          <mxGeometry x="71.5" y="30" width="257" height="257" as="geometry" />
        </mxCell>
        <mxCell id="27HYHwx8lJ8CYNNNeDpq-3" style="edgeStyle=orthogonalEdgeStyle;rounded=0;orthogonalLoop=1;jettySize=auto;html=1;entryX=0.5;entryY=0;entryDx=0;entryDy=0;" edge="1" parent="WIyWlLk6GJQsqaUBKTNV-1" source="WIyWlLk6GJQsqaUBKTNV-3" target="EDt4DQMgxs3yA0LHIA2x-0">
          <mxGeometry relative="1" as="geometry" />
        </mxCell>
        <mxCell id="WIyWlLk6GJQsqaUBKTNV-3" value="Reset" style="rounded=1;whiteSpace=wrap;html=1;fontSize=12;glass=0;strokeWidth=1;shadow=0;" parent="WIyWlLk6GJQsqaUBKTNV-1" vertex="1">
          <mxGeometry x="160" y="62" width="80" height="27" as="geometry" />
        </mxCell>
        <mxCell id="EDt4DQMgxs3yA0LHIA2x-4" style="edgeStyle=orthogonalEdgeStyle;rounded=0;orthogonalLoop=1;jettySize=auto;html=1;exitX=0.5;exitY=1;exitDx=0;exitDy=0;entryX=0.5;entryY=0;entryDx=0;entryDy=0;" parent="WIyWlLk6GJQsqaUBKTNV-1" source="EDt4DQMgxs3yA0LHIA2x-0" target="EDt4DQMgxs3yA0LHIA2x-2" edge="1">
          <mxGeometry relative="1" as="geometry" />
        </mxCell>
        <mxCell id="EDt4DQMgxs3yA0LHIA2x-0" value="&lt;p style=&quot;margin: 0px; font-style: normal; font-variant-caps: normal; font-stretch: normal; line-height: normal; font-size-adjust: none; font-kerning: auto; font-variant-alternates: normal; font-variant-ligatures: normal; font-variant-numeric: normal; font-variant-east-asian: normal; font-variant-position: normal; font-feature-settings: normal; font-optical-sizing: auto; font-variation-settings: normal;&quot;&gt;Perform Initialization (reset score, initialize variables, etc.)&lt;/p&gt;" style="rounded=1;whiteSpace=wrap;html=1;" parent="WIyWlLk6GJQsqaUBKTNV-1" vertex="1">
          <mxGeometry x="124" y="121" width="152" height="70" as="geometry" />
        </mxCell>
        <mxCell id="EDt4DQMgxs3yA0LHIA2x-9" style="edgeStyle=orthogonalEdgeStyle;rounded=0;orthogonalLoop=1;jettySize=auto;html=1;exitX=0.5;exitY=1;exitDx=0;exitDy=0;entryX=0.5;entryY=0;entryDx=0;entryDy=0;" parent="WIyWlLk6GJQsqaUBKTNV-1" source="EDt4DQMgxs3yA0LHIA2x-2" target="EDt4DQMgxs3yA0LHIA2x-8" edge="1">
          <mxGeometry relative="1" as="geometry" />
        </mxCell>
        <mxCell id="EDt4DQMgxs3yA0LHIA2x-2" value="Turn off LEDs" style="shape=parallelogram;perimeter=parallelogramPerimeter;whiteSpace=wrap;html=1;fixedSize=1;" parent="WIyWlLk6GJQsqaUBKTNV-1" vertex="1">
          <mxGeometry x="140" y="220" width="120" height="60" as="geometry" />
        </mxCell>
        <mxCell id="EDt4DQMgxs3yA0LHIA2x-7" value="Beginning of game" style="text;html=1;align=center;verticalAlign=middle;resizable=0;points=[];autosize=1;strokeColor=none;fillColor=none;" parent="WIyWlLk6GJQsqaUBKTNV-1" vertex="1">
          <mxGeometry x="92" y="30" width="120" height="30" as="geometry" />
        </mxCell>
        <mxCell id="EDt4DQMgxs3yA0LHIA2x-14" style="edgeStyle=orthogonalEdgeStyle;rounded=0;orthogonalLoop=1;jettySize=auto;html=1;exitX=1;exitY=0.5;exitDx=0;exitDy=0;entryX=0;entryY=0.5;entryDx=0;entryDy=0;" parent="WIyWlLk6GJQsqaUBKTNV-1" source="EDt4DQMgxs3yA0LHIA2x-8" target="EDt4DQMgxs3yA0LHIA2x-13" edge="1">
          <mxGeometry relative="1" as="geometry" />
        </mxCell>
        <mxCell id="EDt4DQMgxs3yA0LHIA2x-8" value="Are all switches down?" style="rhombus;whiteSpace=wrap;html=1;" parent="WIyWlLk6GJQsqaUBKTNV-1" vertex="1">
          <mxGeometry x="145" y="369" width="110" height="84" as="geometry" />
        </mxCell>
        <mxCell id="EDt4DQMgxs3yA0LHIA2x-11" style="edgeStyle=orthogonalEdgeStyle;rounded=0;orthogonalLoop=1;jettySize=auto;html=1;exitX=0.5;exitY=1;exitDx=0;exitDy=0;entryX=0;entryY=0.5;entryDx=0;entryDy=0;" parent="WIyWlLk6GJQsqaUBKTNV-1" source="EDt4DQMgxs3yA0LHIA2x-8" target="EDt4DQMgxs3yA0LHIA2x-8" edge="1">
          <mxGeometry relative="1" as="geometry">
            <Array as="points">
              <mxPoint x="200" y="470" />
              <mxPoint x="110" y="470" />
              <mxPoint x="110" y="410" />
            </Array>
          </mxGeometry>
        </mxCell>
        <mxCell id="EDt4DQMgxs3yA0LHIA2x-12" value="No" style="text;html=1;align=center;verticalAlign=middle;resizable=0;points=[];autosize=1;strokeColor=none;fillColor=none;" parent="WIyWlLk6GJQsqaUBKTNV-1" vertex="1">
          <mxGeometry x="90" y="470" width="40" height="30" as="geometry" />
        </mxCell>
        <mxCell id="EDt4DQMgxs3yA0LHIA2x-17" style="edgeStyle=orthogonalEdgeStyle;rounded=0;orthogonalLoop=1;jettySize=auto;html=1;exitX=0.5;exitY=1;exitDx=0;exitDy=0;entryX=0.5;entryY=0;entryDx=0;entryDy=0;" parent="WIyWlLk6GJQsqaUBKTNV-1" source="EDt4DQMgxs3yA0LHIA2x-13" target="EDt4DQMgxs3yA0LHIA2x-16" edge="1">
          <mxGeometry relative="1" as="geometry" />
        </mxCell>
        <mxCell id="EDt4DQMgxs3yA0LHIA2x-13" value="Set current &lt;br&gt;value on LEDs" style="shape=parallelogram;perimeter=parallelogramPerimeter;whiteSpace=wrap;html=1;fixedSize=1;" parent="WIyWlLk6GJQsqaUBKTNV-1" vertex="1">
          <mxGeometry x="343" y="380" width="120" height="60" as="geometry" />
        </mxCell>
        <mxCell id="EDt4DQMgxs3yA0LHIA2x-15" value="Yes" style="text;html=1;align=center;verticalAlign=middle;resizable=0;points=[];autosize=1;strokeColor=none;fillColor=none;" parent="WIyWlLk6GJQsqaUBKTNV-1" vertex="1">
          <mxGeometry x="280" y="390" width="40" height="30" as="geometry" />
        </mxCell>
        <mxCell id="EDt4DQMgxs3yA0LHIA2x-20" style="edgeStyle=orthogonalEdgeStyle;rounded=0;orthogonalLoop=1;jettySize=auto;html=1;exitX=0.5;exitY=1;exitDx=0;exitDy=0;entryX=0;entryY=0.5;entryDx=0;entryDy=0;" parent="WIyWlLk6GJQsqaUBKTNV-1" source="EDt4DQMgxs3yA0LHIA2x-16" target="EDt4DQMgxs3yA0LHIA2x-19" edge="1">
          <mxGeometry relative="1" as="geometry" />
        </mxCell>
        <mxCell id="EDt4DQMgxs3yA0LHIA2x-33" style="edgeStyle=orthogonalEdgeStyle;rounded=0;orthogonalLoop=1;jettySize=auto;html=1;exitX=0;exitY=0.5;exitDx=0;exitDy=0;" parent="WIyWlLk6GJQsqaUBKTNV-1" source="EDt4DQMgxs3yA0LHIA2x-16" target="EDt4DQMgxs3yA0LHIA2x-32" edge="1">
          <mxGeometry relative="1" as="geometry">
            <Array as="points">
              <mxPoint x="348" y="550" />
              <mxPoint x="230" y="550" />
            </Array>
          </mxGeometry>
        </mxCell>
        <mxCell id="EDt4DQMgxs3yA0LHIA2x-16" value="Is any switch up?" style="rhombus;whiteSpace=wrap;html=1;" parent="WIyWlLk6GJQsqaUBKTNV-1" vertex="1">
          <mxGeometry x="348" y="470" width="110" height="80" as="geometry" />
        </mxCell>
        <mxCell id="EDt4DQMgxs3yA0LHIA2x-23" style="edgeStyle=orthogonalEdgeStyle;rounded=0;orthogonalLoop=1;jettySize=auto;html=1;exitX=1;exitY=0.5;exitDx=0;exitDy=0;entryX=0.5;entryY=1;entryDx=0;entryDy=0;" parent="WIyWlLk6GJQsqaUBKTNV-1" source="EDt4DQMgxs3yA0LHIA2x-19" target="EDt4DQMgxs3yA0LHIA2x-22" edge="1">
          <mxGeometry relative="1" as="geometry" />
        </mxCell>
        <mxCell id="27HYHwx8lJ8CYNNNeDpq-5" style="edgeStyle=orthogonalEdgeStyle;rounded=0;orthogonalLoop=1;jettySize=auto;html=1;exitX=0.5;exitY=0;exitDx=0;exitDy=0;entryX=1;entryY=0.5;entryDx=0;entryDy=0;" edge="1" parent="WIyWlLk6GJQsqaUBKTNV-1" source="EDt4DQMgxs3yA0LHIA2x-19" target="EDt4DQMgxs3yA0LHIA2x-16">
          <mxGeometry relative="1" as="geometry" />
        </mxCell>
        <mxCell id="EDt4DQMgxs3yA0LHIA2x-19" value="Has count time elapse?" style="ellipse;whiteSpace=wrap;html=1;" parent="WIyWlLk6GJQsqaUBKTNV-1" vertex="1">
          <mxGeometry x="430" y="585" width="120" height="80" as="geometry" />
        </mxCell>
        <mxCell id="EDt4DQMgxs3yA0LHIA2x-24" style="edgeStyle=orthogonalEdgeStyle;rounded=0;orthogonalLoop=1;jettySize=auto;html=1;exitX=0.5;exitY=0;exitDx=0;exitDy=0;entryX=1;entryY=0.5;entryDx=0;entryDy=0;" parent="WIyWlLk6GJQsqaUBKTNV-1" source="EDt4DQMgxs3yA0LHIA2x-22" target="EDt4DQMgxs3yA0LHIA2x-13" edge="1">
          <mxGeometry relative="1" as="geometry" />
        </mxCell>
        <mxCell id="EDt4DQMgxs3yA0LHIA2x-22" value="Increment LED Value" style="rounded=0;whiteSpace=wrap;html=1;" parent="WIyWlLk6GJQsqaUBKTNV-1" vertex="1">
          <mxGeometry x="550" y="440" width="120" height="60" as="geometry" />
        </mxCell>
        <mxCell id="EDt4DQMgxs3yA0LHIA2x-25" value="No" style="text;html=1;align=center;verticalAlign=middle;resizable=0;points=[];autosize=1;strokeColor=none;fillColor=none;" parent="WIyWlLk6GJQsqaUBKTNV-1" vertex="1">
          <mxGeometry x="360" y="570" width="40" height="30" as="geometry" />
        </mxCell>
        <mxCell id="EDt4DQMgxs3yA0LHIA2x-26" value="No" style="text;html=1;align=center;verticalAlign=middle;resizable=0;points=[];autosize=1;strokeColor=none;fillColor=none;" parent="WIyWlLk6GJQsqaUBKTNV-1" vertex="1">
          <mxGeometry x="440" y="540" width="40" height="30" as="geometry" />
        </mxCell>
        <mxCell id="EDt4DQMgxs3yA0LHIA2x-27" value="Yes" style="text;html=1;align=center;verticalAlign=middle;resizable=0;points=[];autosize=1;strokeColor=none;fillColor=none;" parent="WIyWlLk6GJQsqaUBKTNV-1" vertex="1">
          <mxGeometry x="620" y="520" width="40" height="30" as="geometry" />
        </mxCell>
        <mxCell id="EDt4DQMgxs3yA0LHIA2x-29" value="During a round" style="text;html=1;align=center;verticalAlign=middle;resizable=0;points=[];autosize=1;strokeColor=none;fillColor=none;" parent="WIyWlLk6GJQsqaUBKTNV-1" vertex="1">
          <mxGeometry x="346" y="330" width="100" height="30" as="geometry" />
        </mxCell>
        <mxCell id="EDt4DQMgxs3yA0LHIA2x-36" style="edgeStyle=orthogonalEdgeStyle;rounded=0;orthogonalLoop=1;jettySize=auto;html=1;exitX=0.5;exitY=1;exitDx=0;exitDy=0;entryX=1;entryY=0.5;entryDx=0;entryDy=0;" parent="WIyWlLk6GJQsqaUBKTNV-1" source="EDt4DQMgxs3yA0LHIA2x-32" target="EDt4DQMgxs3yA0LHIA2x-35" edge="1">
          <mxGeometry relative="1" as="geometry" />
        </mxCell>
        <mxCell id="EDt4DQMgxs3yA0LHIA2x-39" style="edgeStyle=orthogonalEdgeStyle;rounded=0;orthogonalLoop=1;jettySize=auto;html=1;exitX=0;exitY=0.5;exitDx=0;exitDy=0;entryX=1;entryY=0.5;entryDx=0;entryDy=0;" parent="WIyWlLk6GJQsqaUBKTNV-1" source="EDt4DQMgxs3yA0LHIA2x-32" target="EDt4DQMgxs3yA0LHIA2x-38" edge="1">
          <mxGeometry relative="1" as="geometry" />
        </mxCell>
        <mxCell id="EDt4DQMgxs3yA0LHIA2x-32" value="Does the&amp;nbsp;the number of lit LEDs matches the round number?" style="rounded=1;whiteSpace=wrap;html=1;" parent="WIyWlLk6GJQsqaUBKTNV-1" vertex="1">
          <mxGeometry x="170" y="605" width="120" height="60" as="geometry" />
        </mxCell>
        <mxCell id="EDt4DQMgxs3yA0LHIA2x-34" value="Yes" style="text;html=1;align=center;verticalAlign=middle;resizable=0;points=[];autosize=1;strokeColor=none;fillColor=none;" parent="WIyWlLk6GJQsqaUBKTNV-1" vertex="1">
          <mxGeometry x="270" y="525" width="40" height="30" as="geometry" />
        </mxCell>
        <mxCell id="EDt4DQMgxs3yA0LHIA2x-42" style="edgeStyle=orthogonalEdgeStyle;rounded=0;orthogonalLoop=1;jettySize=auto;html=1;exitX=0.25;exitY=0;exitDx=0;exitDy=0;entryX=0.5;entryY=1;entryDx=0;entryDy=0;" parent="WIyWlLk6GJQsqaUBKTNV-1" source="EDt4DQMgxs3yA0LHIA2x-35" target="EDt4DQMgxs3yA0LHIA2x-38" edge="1">
          <mxGeometry relative="1" as="geometry" />
        </mxCell>
        <mxCell id="EDt4DQMgxs3yA0LHIA2x-35" value="Increment score by 1&amp;nbsp;" style="rounded=1;whiteSpace=wrap;html=1;" parent="WIyWlLk6GJQsqaUBKTNV-1" vertex="1">
          <mxGeometry x="70" y="710" width="120" height="60" as="geometry" />
        </mxCell>
        <mxCell id="EDt4DQMgxs3yA0LHIA2x-41" style="edgeStyle=orthogonalEdgeStyle;rounded=0;orthogonalLoop=1;jettySize=auto;html=1;entryX=1;entryY=1;entryDx=0;entryDy=0;" parent="WIyWlLk6GJQsqaUBKTNV-1" source="EDt4DQMgxs3yA0LHIA2x-38" target="EDt4DQMgxs3yA0LHIA2x-8" edge="1">
          <mxGeometry relative="1" as="geometry">
            <Array as="points">
              <mxPoint x="85" y="520" />
              <mxPoint x="228" y="520" />
            </Array>
          </mxGeometry>
        </mxCell>
        <mxCell id="EDt4DQMgxs3yA0LHIA2x-38" value="Increment&lt;br&gt;&amp;nbsp;round by 1" style="ellipse;whiteSpace=wrap;html=1;" parent="WIyWlLk6GJQsqaUBKTNV-1" vertex="1">
          <mxGeometry x="40" y="605" width="90" height="60" as="geometry" />
        </mxCell>
        <mxCell id="EDt4DQMgxs3yA0LHIA2x-43" value="Yes" style="text;html=1;align=center;verticalAlign=middle;resizable=0;points=[];autosize=1;strokeColor=none;fillColor=none;" parent="WIyWlLk6GJQsqaUBKTNV-1" vertex="1">
          <mxGeometry x="230" y="710" width="40" height="30" as="geometry" />
        </mxCell>
        <mxCell id="EDt4DQMgxs3yA0LHIA2x-44" value="No" style="text;html=1;align=center;verticalAlign=middle;resizable=0;points=[];autosize=1;strokeColor=none;fillColor=none;" parent="WIyWlLk6GJQsqaUBKTNV-1" vertex="1">
          <mxGeometry x="130" y="600" width="40" height="30" as="geometry" />
        </mxCell>
        <mxCell id="27HYHwx8lJ8CYNNNeDpq-0" style="edgeStyle=orthogonalEdgeStyle;rounded=0;orthogonalLoop=1;jettySize=auto;html=1;exitX=0.5;exitY=1;exitDx=0;exitDy=0;" edge="1" parent="WIyWlLk6GJQsqaUBKTNV-1" source="EDt4DQMgxs3yA0LHIA2x-28" target="EDt4DQMgxs3yA0LHIA2x-28">
          <mxGeometry relative="1" as="geometry" />
        </mxCell>
      </root>
    </mxGraphModel>
  </diagram>
</mxfile>
